<svg width="24" height="24" viewBox="0 0 24 24" fill="none" xmlns="http://www.w3.org/2000/svg">
<path d="M9 5C9 3.89543 9.89543 3 11 3H13C14.1046 3 15 3.89543 15 5V7C15 8.10457 14.1046 9 13 9H11C9.89543 9 9 8.10457 9 7V5Z" stroke="currentColor" stroke-width="2" stroke-linecap="round" stroke-linejoin="round"/>
<path d="M12 9V12" stroke="currentColor" stroke-width="2" stroke-linecap="round" stroke-linejoin="round"/>
<path d="M12 12C9.79086 12 8 13.7909 8 16V19C8 20.1046 8.89543 21 10 21H14C15.1046 21 16 20.1046 16 19V16C16 13.7909 14.2091 12 12 12Z" stroke="currentColor" stroke-width="2" stroke-linecap="round" stroke-linejoin="round"/>
<path d="M18 16C18 17.6569 19.3431 19 21 19C22.6569 19 24 17.6569 24 16C24 14.3431 22.6569 13 21 13C19.3431 13 18 14.3431 18 16Z" stroke="currentColor" stroke-width="2" stroke-linecap="round" stroke-linejoin="round"/>
<path d="M6 16C6 17.6569 4.65685 19 3 19C1.34315 19 0 17.6569 0 16C0 14.3431 1.34315 13 3 13C4.65685 13 6 14.3431 6 16Z" stroke="currentColor" stroke-width="2" stroke-linecap="round" stroke-linejoin="round"/>
</svg>

